<mxfile host="app.diagrams.net" agent="Mozilla/5.0 (Windows NT 10.0; Win64; x64) AppleWebKit/537.36 (KHTML, like Gecko) Chrome/129.0.0.0 Safari/537.36" version="24.7.17">
  <diagram name="Page-1" id="Osouptb_ulI3xmRRhViE">
    <mxGraphModel grid="1" page="1" gridSize="10" guides="1" tooltips="1" connect="1" arrows="1" fold="1" pageScale="1" pageWidth="850" pageHeight="1100" math="0" shadow="0">
      <root>
        <mxCell id="0" />
        <mxCell id="1" parent="0" />
        <mxCell id="yv842w2nl-AICVW9OAdy-1" value="" style="ellipse;html=1;shape=startState;fillColor=#000000;strokeColor=#ff0000;" vertex="1" parent="1">
          <mxGeometry x="195" y="80" width="30" height="30" as="geometry" />
        </mxCell>
        <mxCell id="yv842w2nl-AICVW9OAdy-2" value="" style="edgeStyle=orthogonalEdgeStyle;html=1;verticalAlign=bottom;endArrow=open;endSize=8;strokeColor=#ff0000;rounded=0;" edge="1" parent="1" source="yv842w2nl-AICVW9OAdy-1">
          <mxGeometry relative="1" as="geometry">
            <mxPoint x="210" y="170" as="targetPoint" />
          </mxGeometry>
        </mxCell>
        <mxCell id="yv842w2nl-AICVW9OAdy-13" style="edgeStyle=orthogonalEdgeStyle;rounded=0;orthogonalLoop=1;jettySize=auto;html=1;exitX=1;exitY=0.5;exitDx=0;exitDy=0;entryX=0;entryY=0.5;entryDx=0;entryDy=0;" edge="1" parent="1" source="yv842w2nl-AICVW9OAdy-3" target="yv842w2nl-AICVW9OAdy-5">
          <mxGeometry relative="1" as="geometry" />
        </mxCell>
        <mxCell id="yv842w2nl-AICVW9OAdy-3" value="Mendaftar Kelas" style="rounded=1;arcSize=10;whiteSpace=wrap;html=1;align=center;glass=0;" vertex="1" parent="1">
          <mxGeometry x="335" y="180" width="100" height="50" as="geometry" />
        </mxCell>
        <mxCell id="yv842w2nl-AICVW9OAdy-12" style="edgeStyle=orthogonalEdgeStyle;rounded=0;orthogonalLoop=1;jettySize=auto;html=1;exitX=1;exitY=0.5;exitDx=0;exitDy=0;entryX=0;entryY=0.5;entryDx=0;entryDy=0;" edge="1" parent="1" source="yv842w2nl-AICVW9OAdy-4" target="yv842w2nl-AICVW9OAdy-3">
          <mxGeometry relative="1" as="geometry" />
        </mxCell>
        <mxCell id="yv842w2nl-AICVW9OAdy-4" value="Menginput&amp;nbsp;&lt;div&gt;Data diri&lt;/div&gt;" style="rounded=1;arcSize=10;whiteSpace=wrap;html=1;align=center;glass=0;" vertex="1" parent="1">
          <mxGeometry x="170" y="180" width="100" height="50" as="geometry" />
        </mxCell>
        <mxCell id="yv842w2nl-AICVW9OAdy-14" style="edgeStyle=orthogonalEdgeStyle;rounded=0;orthogonalLoop=1;jettySize=auto;html=1;exitX=0.5;exitY=1;exitDx=0;exitDy=0;entryX=0.5;entryY=0;entryDx=0;entryDy=0;" edge="1" parent="1" source="yv842w2nl-AICVW9OAdy-5" target="yv842w2nl-AICVW9OAdy-6">
          <mxGeometry relative="1" as="geometry" />
        </mxCell>
        <mxCell id="yv842w2nl-AICVW9OAdy-5" value="Memeriksa Ketersediaan&amp;nbsp;&lt;div&gt;Kelas&lt;/div&gt;" style="rounded=1;arcSize=10;whiteSpace=wrap;html=1;align=center;glass=0;" vertex="1" parent="1">
          <mxGeometry x="510" y="180" width="100" height="50" as="geometry" />
        </mxCell>
        <mxCell id="yv842w2nl-AICVW9OAdy-9" style="edgeStyle=orthogonalEdgeStyle;rounded=0;orthogonalLoop=1;jettySize=auto;html=1;exitX=0;exitY=0.5;exitDx=0;exitDy=0;" edge="1" parent="1" source="yv842w2nl-AICVW9OAdy-6" target="yv842w2nl-AICVW9OAdy-4">
          <mxGeometry relative="1" as="geometry">
            <mxPoint x="435" y="325" as="targetPoint" />
          </mxGeometry>
        </mxCell>
        <mxCell id="yv842w2nl-AICVW9OAdy-15" value="Tidak" style="edgeLabel;html=1;align=center;verticalAlign=middle;resizable=0;points=[];fontSize=15;fontStyle=1" connectable="0" vertex="1" parent="yv842w2nl-AICVW9OAdy-9">
          <mxGeometry x="-0.2623" y="1" relative="1" as="geometry">
            <mxPoint as="offset" />
          </mxGeometry>
        </mxCell>
        <mxCell id="yv842w2nl-AICVW9OAdy-11" style="edgeStyle=orthogonalEdgeStyle;rounded=0;orthogonalLoop=1;jettySize=auto;html=1;exitX=1;exitY=0.5;exitDx=0;exitDy=0;entryX=0;entryY=0.5;entryDx=0;entryDy=0;" edge="1" parent="1" source="yv842w2nl-AICVW9OAdy-6" target="yv842w2nl-AICVW9OAdy-10">
          <mxGeometry relative="1" as="geometry" />
        </mxCell>
        <mxCell id="yv842w2nl-AICVW9OAdy-16" value="Ya" style="edgeLabel;html=1;align=center;verticalAlign=middle;resizable=0;points=[];fontSize=15;fontStyle=1" connectable="0" vertex="1" parent="yv842w2nl-AICVW9OAdy-11">
          <mxGeometry x="-0.075" y="-1" relative="1" as="geometry">
            <mxPoint as="offset" />
          </mxGeometry>
        </mxCell>
        <mxCell id="yv842w2nl-AICVW9OAdy-6" value="Kelas&amp;nbsp;&lt;div&gt;Tersedia&lt;/div&gt;" style="shape=rhombus;perimeter=rhombusPerimeter;whiteSpace=wrap;html=1;align=center;" vertex="1" parent="1">
          <mxGeometry x="510" y="300" width="100" height="50" as="geometry" />
        </mxCell>
        <mxCell id="yv842w2nl-AICVW9OAdy-18" style="edgeStyle=orthogonalEdgeStyle;rounded=0;orthogonalLoop=1;jettySize=auto;html=1;exitX=0.5;exitY=1;exitDx=0;exitDy=0;entryX=0.5;entryY=0;entryDx=0;entryDy=0;" edge="1" parent="1" source="yv842w2nl-AICVW9OAdy-10" target="yv842w2nl-AICVW9OAdy-17">
          <mxGeometry relative="1" as="geometry" />
        </mxCell>
        <mxCell id="yv842w2nl-AICVW9OAdy-10" value="Ditambahkan ke daftar kelas" style="rounded=1;arcSize=10;whiteSpace=wrap;html=1;align=center;glass=0;" vertex="1" parent="1">
          <mxGeometry x="690" y="300" width="100" height="50" as="geometry" />
        </mxCell>
        <mxCell id="yv842w2nl-AICVW9OAdy-23" style="edgeStyle=orthogonalEdgeStyle;rounded=0;orthogonalLoop=1;jettySize=auto;html=1;exitX=0;exitY=0.5;exitDx=0;exitDy=0;entryX=1;entryY=0.5;entryDx=0;entryDy=0;" edge="1" parent="1" source="yv842w2nl-AICVW9OAdy-17" target="yv842w2nl-AICVW9OAdy-19">
          <mxGeometry relative="1" as="geometry" />
        </mxCell>
        <mxCell id="yv842w2nl-AICVW9OAdy-17" value="Mendapatkan no_ruangan dan no_absen&amp;nbsp;" style="rounded=1;arcSize=10;whiteSpace=wrap;html=1;align=center;glass=0;" vertex="1" parent="1">
          <mxGeometry x="690" y="410" width="100" height="50" as="geometry" />
        </mxCell>
        <mxCell id="yv842w2nl-AICVW9OAdy-24" style="edgeStyle=orthogonalEdgeStyle;rounded=0;orthogonalLoop=1;jettySize=auto;html=1;exitX=0;exitY=0.5;exitDx=0;exitDy=0;entryX=1;entryY=0.5;entryDx=0;entryDy=0;" edge="1" parent="1" source="yv842w2nl-AICVW9OAdy-19" target="yv842w2nl-AICVW9OAdy-20">
          <mxGeometry relative="1" as="geometry" />
        </mxCell>
        <mxCell id="yv842w2nl-AICVW9OAdy-19" value="Mengikuti kelas dan ujian" style="rounded=1;arcSize=10;whiteSpace=wrap;html=1;align=center;glass=0;" vertex="1" parent="1">
          <mxGeometry x="510" y="410" width="100" height="50" as="geometry" />
        </mxCell>
        <mxCell id="yv842w2nl-AICVW9OAdy-25" style="edgeStyle=orthogonalEdgeStyle;rounded=0;orthogonalLoop=1;jettySize=auto;html=1;exitX=0;exitY=0.5;exitDx=0;exitDy=0;entryX=1;entryY=0.5;entryDx=0;entryDy=0;" edge="1" parent="1" source="yv842w2nl-AICVW9OAdy-20" target="yv842w2nl-AICVW9OAdy-21">
          <mxGeometry relative="1" as="geometry" />
        </mxCell>
        <mxCell id="yv842w2nl-AICVW9OAdy-20" value="Mendapat nilai akhir" style="rounded=1;arcSize=10;whiteSpace=wrap;html=1;align=center;glass=0;" vertex="1" parent="1">
          <mxGeometry x="335" y="410" width="100" height="50" as="geometry" />
        </mxCell>
        <mxCell id="yv842w2nl-AICVW9OAdy-21" value="" style="ellipse;html=1;shape=endState;fillColor=#000000;strokeColor=#ff0000;" vertex="1" parent="1">
          <mxGeometry x="210" y="420" width="30" height="30" as="geometry" />
        </mxCell>
        <mxCell id="yv842w2nl-AICVW9OAdy-26" value="Activity Diagram Kasus 5.1 (halaman 160)" style="text;html=1;align=center;verticalAlign=middle;whiteSpace=wrap;rounded=0;fontSize=18;fontStyle=1" vertex="1" parent="1">
          <mxGeometry x="130" y="30" width="430" height="30" as="geometry" />
        </mxCell>
      </root>
    </mxGraphModel>
  </diagram>
</mxfile>
